<?xml version="1.0" encoding="utf-8"?>
<!-- Generator: Adobe Illustrator 23.0.1, SVG Export Plug-In . SVG Version: 6.00 Build 0)  -->
<svg version="1.1" id="Layer_1" xmlns="http://www.w3.org/2000/svg" xmlns:xlink="http://www.w3.org/1999/xlink" x="0px" y="0px"
	 viewBox="0 0 4067.19 2297.54" style="enable-background:new 0 0 4067.19 2297.54;" xml:space="preserve">
<style type="text/css">
	.st0{fill:#FFFFFF;}
</style>
<g>
	<polygon points="2638.83,-2482.75 2543.1,-2387.02 2543.1,-2367.93 2638.83,-2463.62 	"/>
	<polygon points="2638.83,-2443.32 2543.1,-2347.59 2543.1,-2328.5 2638.83,-2424.16 	"/>
	<polygon points="2638.83,-2403.86 2543.1,-2308.17 2543.1,-2289.04 2638.83,-2384.77 	"/>
	<polygon points="2638.83,-2522.17 2543.1,-2426.44 2543.1,-2407.32 2638.83,-2503.08 	"/>
	<path d="M2620.37-1378.99l202.86-202.91c-5.4-0.83-11.1-1.54-16.99-2.02l-185.87,185.82V-1378.99z"/>
	<polygon points="2617.17,-2539.86 2543.1,-2465.9 2543.1,-2446.72 2636.26,-2539.86 	"/>
	<polygon points="2708.71,-2055.03 2532.73,-1879.01 2518.71,-1845.9 2714.37,-2041.66 	"/>
	<polygon points="2737.83,-1986.18 2732.13,-1999.59 2474.95,-1742.44 2464.76,-1718.26 2469.91,-1718.26 	"/>
	<polygon points="2638.83,-2364.44 2543.1,-2268.74 2543.1,-2249.65 2638.83,-2345.31 	"/>
	<polygon points="2720.47,-2027.3 2503.86,-1810.76 2489.88,-1777.62 2726.1,-2013.9 	"/>
	<path d="M2255.46-2293.23c5.55,0,11-0.22,16.36-0.57l131.77-131.81c-0.22-5.94-0.81-11.71-1.8-17.29l-149.65,149.67H2255.46z"/>
	<polygon points="2638.83,-2325.01 2543.1,-2229.28 2543.1,-2210.23 2638.83,-2305.89 	"/>
	<polygon points="2543.1,-2539.86 2543.1,-2525.59 2557.37,-2539.86 	"/>
	<polygon points="2645.71,-2194.56 2729.59,-2278.43 2710.43,-2278.43 2626.58,-2194.56 	"/>
	<polygon points="2747.72,-1720.06 2819.77,-1792.15 2814.14,-1805.59 2742.25,-1733.62 	"/>
	<polygon points="2730.74,-1761.62 2736.29,-1748.11 2808.11,-1819.91 2802.42,-1833.32 	"/>
	<polygon points="2724.59,-2194.56 2806.05,-2276.02 2806.05,-2278.43 2789.36,-2278.43 2705.47,-2194.56 	"/>
	<polygon points="2785.35,-1718.26 2831.58,-1764.51 2825.88,-1777.84 2766.22,-1718.26 	"/>
	<polygon points="2824.77,-1718.26 2843.23,-1736.76 2837.53,-1750.2 2805.65,-1718.26 	"/>
	<polygon points="2849.26,-1722.49 2845.07,-1718.28 2851.07,-1718.28 	"/>
	<polygon points="2606.28,-2194.56 2690.13,-2278.43 2671.04,-2278.43 2587.19,-2194.56 	"/>
	<polygon points="2396.17,-2057.86 2318.06,-1979.75 2337.11,-1979.75 2396.17,-2038.77 	"/>
	<polygon points="2638.83,-2285.62 2547.77,-2194.56 2566.89,-2194.56 2650.74,-2278.43 2638.83,-2278.43 	"/>
	<polygon points="2547.62,-1914.21 2699.44,-2066.06 2680.35,-2066.06 2561.56,-1947.31 	"/>
	<polygon points="2576.49,-1982.5 2660.05,-2066.08 2640.96,-2066.08 2590.47,-2015.57 	"/>
	<polygon points="2685.13,-2194.56 2769.02,-2278.43 2749.9,-2278.43 2666,-2194.56 	"/>
	<polygon points="2605.32,-2050.84 2620.62,-2066.04 2611.8,-2066.04 	"/>
	<polygon points="2577.7,-2539.86 2543.1,-2505.29 2543.1,-2486.2 2596.83,-2539.86 	"/>
	<polygon points="2144.06,-2539.86 2112.4,-2508.27 2112.4,-2489.13 2163.11,-2539.86 	"/>
	<polygon points="2183.49,-2539.86 2112.4,-2468.84 2112.4,-2449.7 2202.54,-2539.86 	"/>
	<polygon points="2222.88,-2539.86 2112.4,-2429.4 2112.4,-2410.35 2241.97,-2539.86 	"/>
	<polygon points="2112.4,-2539.86 2112.4,-2528.64 2123.65,-2539.86 	"/>
	<path d="M2403.38-2404.96l-108.27,108.27c8.94-1.58,17.43-3.81,25.49-6.47l78.59-78.52
		C2401.25-2389.08,2402.61-2396.8,2403.38-2404.96"/>
	<path d="M2231.85-2293.23l165.94-165.96c-1.51-4.76-3.42-9.19-5.48-13.61l-179.58,179.57H2231.85z"/>
	<path d="M2376.53-2496.43l-264.13,264.19v19.05l272.45-272.46C2382.31-2489.39,2379.59-2493.04,2376.53-2496.43"/>
	<path d="M2262.23-2539.86l-149.83,149.85v19.09L2280.43-2539C2274.51-2539.49,2268.48-2539.79,2262.23-2539.86"/>
	<polygon points="2292.57,-1979.75 2297.68,-1979.75 2381.57,-2063.62 2362.41,-2063.62 2196.84,-1898.03 2196.84,-1878.89 
		2292.57,-1974.58 	"/>
	<polygon points="2093.27,-2063.6 2093.27,-2051.28 2105.56,-2063.6 	"/>
	<path d="M2355.53-2514.85l-243.13,243.1v19.16l253.95-254C2362.93-2509.5,2359.4-2512.33,2355.53-2514.85"/>
	<path d="M2329.46-2528.24l-217.06,217.11v19.05l230.3-230.3C2338.51-2524.47,2334.06-2526.44,2329.46-2528.24"/>
	<path d="M2298.42-2536.63l-186.02,186.04v19.11l201.72-201.63C2309.04-2534.47,2303.83-2535.69,2298.42-2536.63"/>
	<polygon points="2292.57,-1796.63 2214.23,-1718.26 2233.4,-1718.26 2292.57,-1777.47 	"/>
	<polygon points="2208.09,-2230.05 2208.09,-2249.18 2153.52,-2194.58 2172.6,-2194.58 	"/>
	<polygon points="2140.06,-1979.75 2223.87,-2063.62 2204.78,-2063.62 2120.93,-1979.75 	"/>
	<polygon points="2208.09,-2209.71 2192.9,-2194.58 2208.09,-2194.58 	"/>
	<polygon points="2208.09,-2288.6 2114.09,-2194.56 2133.18,-2194.56 2208.09,-2269.48 	"/>
	<polygon points="2396.17,-1999.35 2396.17,-2018.47 2357.48,-1979.73 2376.57,-1979.73 	"/>
	<polygon points="2292.57,-1738.05 2292.57,-1757.13 2253.7,-1718.28 2272.82,-1718.28 	"/>
	<polygon points="2196.84,-1918.33 2342.15,-2063.58 2323.02,-2063.58 2196.84,-1937.42 	"/>
	<polygon points="2292.57,-1836.02 2196.84,-1740.33 2196.84,-1721.17 2292.57,-1816.93 	"/>
	<path d="M2105.27-1455.27l129.9-129.86c-10.37,2.72-20.19,6.22-29.64,10.48l-90.58,90.56
		C2110.89-1474.85,2107.77-1465.25,2105.27-1455.27"/>
	<polygon points="2196.84,-1976.88 2196.84,-1957.75 2302.76,-2063.6 2283.64,-2063.6 	"/>
	<polygon points="2292.57,-1875.45 2196.84,-1779.72 2196.84,-1760.59 2292.57,-1856.36 	"/>
	<polygon points="2292.57,-1954.26 2196.84,-1858.6 2196.84,-1839.48 2292.57,-1935.17 	"/>
	<polygon points="2160.32,-1979.75 2179.45,-1979.75 2263.3,-2063.62 2244.21,-2063.62 	"/>
	<polygon points="3190.74,-2463.55 3185,-2476.92 2929.48,-2221.39 2918.11,-2194.54 2921.72,-2194.54 	"/>
	<polygon points="2983.32,-1758.53 3145.8,-1921.03 3126.71,-1921.03 2983.32,-1777.62 	"/>
	<polygon points="3106.6,-1979.75 3125.65,-1979.75 3209.53,-2063.62 3190.41,-2063.62 	"/>
	<polygon points="2983.32,-1797.99 3106.37,-1921.07 3087.25,-1921.07 2983.32,-1817.08 	"/>
	<polygon points="2983.32,-1837.42 3079.05,-1933.11 3079.05,-1952.2 2983.32,-1856.54 	"/>
	<polygon points="3224.68,-1921.05 3205.53,-1921.05 3126.09,-1841.59 3145.21,-1841.59 	"/>
	<polygon points="3229.87,-2063.6 3145.95,-1979.73 3165.07,-1979.73 3248.96,-2063.6 	"/>
	<polygon points="3072.94,-1477.55 3176.44,-1581.05 3174.04,-1584.96 3161.17,-1584.96 3072.94,-1496.64 	"/>
	<polygon points="3072.94,-1398.71 3206.48,-1532.32 3199.2,-1544.1 3072.94,-1417.79 	"/>
	<polygon points="3072.94,-1438.17 3191.4,-1556.68 3184.19,-1568.51 3072.94,-1457.26 	"/>
	<polygon points="3072.94,-1359.32 3221.52,-1507.88 3214.24,-1519.7 3072.94,-1378.37 	"/>
	<polygon points="3072.94,-1516.94 3140.87,-1584.96 3121.78,-1584.96 3072.94,-1536.07 	"/>
	<polygon points="3086.66,-1841.57 3105.79,-1841.57 3185.22,-1921.03 3166.1,-1921.03 	"/>
	<polygon points="3072.94,-1556.44 3101.41,-1584.95 3082.28,-1584.95 3072.94,-1575.53 	"/>
	<polygon points="3829.89,-1543.94 3606.43,-1320.55 3592.46,-1287.42 3835.52,-1530.53 	"/>
	<polygon points="3818.12,-1571.7 3635.3,-1388.78 3621.29,-1355.75 3823.82,-1558.23 	"/>
	<polygon points="3811.46,-1587.37 3794.44,-1587.37 3664.17,-1457.11 3650.16,-1424.05 3812.09,-1585.97 	"/>
	<polygon points="3242.3,-1859.85 3242.3,-1878.98 3204.94,-1841.59 3224.1,-1841.59 	"/>
	<polygon points="3377.38,-1584.95 3358.34,-1584.95 3307.54,-1534.21 3276.91,-1484.43 	"/>
	<polygon points="3755.01,-1587.37 3693.04,-1525.38 3679.03,-1492.36 3774.1,-1587.37 	"/>
	<polygon points="3719.23,-1587.37 3707.9,-1560.63 3734.71,-1587.37 	"/>
	<polygon points="2983.32,-1955.66 3091.26,-2063.6 3072.13,-2063.6 2983.32,-1974.78 	"/>
	<polygon points="2983.32,-1876.84 3079.05,-1972.54 3079.05,-1979.73 3086.26,-1979.73 3170.11,-2063.6 3150.98,-2063.6 
		2983.32,-1895.93 	"/>
	<polygon points="2983.32,-2053.59 2983.32,-2034.54 3012.41,-2063.62 2993.28,-2063.62 	"/>
	<polygon points="2983.32,-1916.23 3130.69,-2063.6 3111.6,-2063.6 2983.32,-1935.32 	"/>
	<polygon points="3276.54,-2194.56 3296.07,-2214.15 3290.41,-2227.59 3257.42,-2194.56 	"/>
	<polygon points="3302.14,-2199.82 3296.84,-2194.54 3304.38,-2194.54 	"/>
	<polygon points="2983.32,-1995.08 3051.83,-2063.58 3032.71,-2063.58 2983.32,-2014.17 	"/>
	<polygon points="2724.89,-1776.07 2796.35,-1847.59 2790.72,-1861.07 2709.59,-1779.95 2723.3,-1779.95 	"/>
	<polygon points="2620.37,-1536.69 2668.65,-1584.95 2649.56,-1584.95 2620.37,-1555.85 	"/>
	<path d="M2620.37-1358.69v19.09l234.12-234.12c-4.56-1.69-9.42-3.24-14.49-4.52L2620.37-1358.69z"/>
	<polygon points="2620.37,-1576.16 2629.19,-1584.93 2620.37,-1584.93 	"/>
	<path d="M2620.37-1300.14l260.2-260.16c-3.79-2.59-7.76-4.93-12.03-7.15l-248.17,248.19V-1300.14z"/>
	<polygon points="2125.9,-2063.6 2093.27,-2030.98 2093.27,-2011.85 2145.02,-2063.6 	"/>
	<path d="M2620.37-1260.72l281.05-281.01c-1.65-1.97-3.31-3.91-5.18-5.72c-1.36-1.4-2.94-2.61-4.34-3.88l-271.52,271.53V-1260.72z"
		/>
	<path d="M2620.37-1418.42l166.41-166.42c-1.03,0-1.99-0.11-3.09-0.11h-15.85l-147.48,147.4V-1418.42z"/>
	<polygon points="2670.2,-1779.94 2689.29,-1779.94 2784.69,-1875.3 2779.02,-1888.78 	"/>
	<polygon points="2649.86,-1779.94 2772.96,-1903.05 2767.33,-1916.45 2630.74,-1779.94 	"/>
	<polygon points="2620.37,-1457.84 2747.51,-1584.95 2728.38,-1584.95 2620.37,-1476.93 	"/>
	<polygon points="2620.37,-1497.27 2708.08,-1584.95 2688.96,-1584.95 2620.37,-1516.35 	"/>
	<polygon points="2806.05,-2197.17 2806.05,-2216.3 2784.32,-2194.58 2803.44,-2194.58 	"/>
	<polygon points="2806.05,-2255.72 2744.89,-2194.56 2764.02,-2194.56 2806.05,-2236.6 	"/>
	<polygon points="3189.16,-2225.45 3260.98,-2297.26 3255.29,-2310.72 3183.61,-2239.01 	"/>
	<polygon points="3237.12,-2194.56 3284.38,-2241.86 3278.67,-2255.26 3217.99,-2194.56 	"/>
	<polygon points="3173.31,-2504.67 2958.31,-2289.7 2944.26,-2256.57 3178.97,-2491.26 	"/>
	<polygon points="3176.62,-2256.2 3177.76,-2253.48 3249.26,-2324.97 3243.62,-2338.42 3161.36,-2256.2 	"/>
	<polygon points="3242.3,-1918.4 3165.51,-1841.57 3184.64,-1841.57 3242.3,-1899.28 	"/>
	<polygon points="3259.59,-2053.96 3185.37,-1979.73 3204.53,-1979.73 3259.59,-2034.84 	"/>
	<polygon points="3259.59,-1995.38 3259.59,-2014.5 3224.83,-1979.75 3243.92,-1979.75 	"/>
	<polygon points="3200.63,-2197.47 3272.68,-2269.55 3267.02,-2282.99 3195.04,-2211.02 	"/>
	<polygon points="3132.16,-2542.36 3016.01,-2426.26 3002.07,-2393.19 3151.24,-2542.36 	"/>
	<polygon points="3161.58,-2532.36 2987.14,-2357.96 2973.17,-2324.84 3167.28,-2518.95 	"/>
	<polygon points="3092.77,-2542.36 3044.88,-2494.53 3030.87,-2461.51 3111.82,-2542.36 	"/>
	<polygon points="3141.05,-2256.2 3237.52,-2352.72 3231.82,-2366.13 3121.93,-2256.2 	"/>
	<polygon points="3101.67,-2256.2 3225.79,-2380.43 3220.13,-2393.84 3082.54,-2256.2 	"/>
	<polygon points="3065.07,-2542.36 3059.78,-2529.78 3072.36,-2542.36 	"/>
	<polygon points="2292.57,-1914.87 2196.84,-1819.1 2196.84,-1800.02 2292.57,-1895.75 	"/>
	<polygon points="2872.8,-1335.05 2807.49,-1269.8 2815.14,-1258.33 2880.56,-1323.72 	"/>
	<polygon points="2904.84,-1288.3 2856.14,-1239.57 2875.27,-1239.57 2912.56,-1276.94 	"/>
	<path d="M2335.01-1585.83l-227.32,227.25c1.51,4.78,3.2,9.45,5.07,14.08l237.03-237.08
		C2345.05-1583.2,2340.05-1584.58,2335.01-1585.83"/>
	<polygon points="2895.57,-1239.57 2914.66,-1239.57 2928.63,-1253.55 2920.83,-1264.84 	"/>
	<path d="M2300.96-1591.2l-199.92,199.92c0.63,5.63,1.4,11.14,2.58,16.55l214.45-214.5
		C2312.47-1590.15,2306.73-1590.77,2300.96-1591.2"/>
	<polygon points="2856.77,-1358.47 2791.79,-1293.49 2799.4,-1282.05 2864.49,-1347.14 	"/>
	<polygon points="3072.94,-1319.89 3166.58,-1413.6 3166.58,-1432.72 3072.94,-1338.98 	"/>
	<path d="M2260.35-1590.02l-159.5,159.54c-0.66,6-0.96,12.06-0.96,18.2v0.96c0,0.33,0.04,0.59,0.04,0.81l181.13-181.09
		C2274-1591.45,2267.12-1590.88,2260.35-1590.02"/>
	<polygon points="2184.44,-2063.6 2165.32,-2063.6 2093.27,-1991.52 2093.27,-1979.73 2100.59,-1979.73 	"/>
	<polygon points="2888.76,-1311.69 2823.23,-1246.12 2827.57,-1239.57 2835.84,-1239.57 2896.52,-1300.33 	"/>
	<polygon points="3072.94,-1241.01 3166.58,-1334.75 3166.58,-1353.87 3072.94,-1260.06 	"/>
	<polygon points="3110.9,-1239.57 3166.62,-1295.29 3166.62,-1314.45 3091.81,-1239.57 	"/>
	<polygon points="3196.7,-2449.24 2942.02,-2194.54 2961.14,-2194.54 3202.4,-2435.84 	"/>
	<polygon points="3072.94,-1280.43 3166.58,-1374.18 3166.58,-1393.26 3072.94,-1299.48 	"/>
	<polygon points="3150.32,-1239.57 3166.58,-1255.9 3166.58,-1274.99 3131.2,-1239.57 	"/>
	<polygon points="3030.84,-2224.87 3043.38,-2256.2 3062.24,-2256.2 3214.13,-2408.13 3208.43,-2421.6 2981.44,-2194.54 
		3000.57,-2194.54 	"/>
	<polygon points="3079.05,-1833.96 2983.32,-1738.23 2983.32,-1719.11 3079.05,-1814.84 	"/>
	<polygon points="3079.05,-1755.04 3042.16,-1718.24 3061.32,-1718.24 3079.05,-1735.99 	"/>
	<polygon points="3079.05,-1794.54 3002.77,-1718.28 3021.82,-1718.28 3079.05,-1775.41 	"/>
	<polygon points="2934.99,-1239.57 2938.08,-1239.57 2936.87,-1241.45 	"/>
	<polygon points="2743.87,-1971.84 2490.28,-1718.28 2509.37,-1718.28 2749.56,-1958.47 	"/>
	<polygon points="2678.14,-1239.57 2716.1,-1277.56 2716.1,-1296.72 2659.02,-1239.57 	"/>
	<path d="M2917.67-1419.45l-56.93,56.93C2886.85-1374.8,2906.89-1393.67,2917.67-1419.45"/>
	<polygon points="2548.8,-1718.26 2576.53,-1745.97 2589.25,-1777.8 2529.67,-1718.26 	"/>
	<polygon points="2755.52,-1944.18 2591.31,-1779.95 2610.43,-1779.95 2761.26,-1930.74 	"/>
	<path d="M2926.79-1466.08v-0.94c0-0.35-0.03-0.61-0.03-0.9l-150.75,150.71l7.65,11.51l141.85-141.89
		C2926.35-1453.47,2926.79-1459.64,2926.79-1466.08"/>
	<polygon points="2620.37,-1239.57 2638.72,-1239.57 2716.1,-1317.02 2716.1,-1336.07 2620.37,-1240.42 	"/>
	<path d="M2922.27-1502.82l-162,161.93l7.61,11.55l157.51-157.55C2924.66-1492.36,2923.63-1497.71,2922.27-1502.82"/>
	<path d="M2910.17-1530.22l-185.94,186.02h19.05l173.55-173.48C2914.88-1522.02,2912.71-1526.3,2910.17-1530.22"/>
	<path d="M2448.29-1501.98l-249.53,249.46c4.3,2.17,8.64,4.19,13.17,6.03l242.88-242.91
		C2452.77-1493.61,2450.64-1497.87,2448.29-1501.98"/>
	<path d="M2432.18-1525.33l-258.1,258.06c3.71,2.72,7.61,5.19,11.58,7.58l254.76-254.75
		C2437.84-1518.21,2435.08-1521.78,2432.18-1525.33"/>
	<path d="M2412.76-1545.34l-260.27,260.31c3.2,3.2,6.62,6.11,10.11,9.01l259.98-259.98
		C2419.41-1539.23,2416.18-1542.32,2412.76-1545.34"/>
	<path d="M2319.38-1235.67l150.38-150.35c1.03-6.95,1.62-13.9,1.84-21l-173.77,173.73
		C2305.15-1233.69,2312.36-1234.46,2319.38-1235.67"/>
	<path d="M2364.55-1575.97L2119.2-1330.6c2.13,4.19,4.41,8.27,6.92,12.21l251.41-251.48
		C2373.33-1572.06,2368.96-1574.04,2364.55-1575.97"/>
	<path d="M2390.4-1562.36l-256.15,256.15c2.72,3.6,5.48,7.25,8.42,10.63l258.95-258.91
		C2397.94-1557.16,2394.26-1559.92,2390.4-1562.36"/>
	<path d="M2460.79-1475.02L2227-1241.26c4.97,1.51,10.15,2.72,15.23,3.9l223.2-223.2
		C2464.06-1465.49,2462.52-1470.35,2460.79-1475.02"/>
	<path d="M2379.81-1256.67l70.58-70.54c5.59-10.44,10.22-21.4,13.72-32.91l-117.94,117.94
		C2358-1245.97,2369.25-1250.83,2379.81-1256.67"/>
	<path d="M2469.14-1443.98l-209.52,209.48c5.81,0.74,11.73,1.21,17.73,1.44l193.85-193.89
		C2470.76-1432.69,2470.06-1438.35,2469.14-1443.98"/>
	<polygon points="2716.1,-1239.57 2716.1,-1257.26 2698.44,-1239.57 	"/>
	<polygon points="3900.13,-1377.67 3823.75,-1301.25 3830.74,-1301.25 3834.19,-1292.68 3905.83,-1364.21 	"/>
	<polygon points="3344.73,-1394.59 3439.98,-1489.79 3439.98,-1508.89 3344.73,-1413.64 	"/>
	<polygon points="3911.83,-1349.94 3840.08,-1278.22 3845.67,-1264.65 3917.53,-1336.55 	"/>
	<polygon points="3238.22,-1327.51 3337.37,-1426.62 3344.73,-1437.87 3344.73,-1433.97 3439.98,-1529.21 3439.98,-1548.35 
		3230.68,-1339.09 	"/>
	<polygon points="3923.6,-1322.25 3851.55,-1250.27 3855.93,-1239.57 3859.98,-1239.57 3929.26,-1308.82 	"/>
	<polygon points="3935.29,-1294.55 3880.31,-1239.57 3899.4,-1239.57 3940.96,-1281.09 	"/>
	<polygon points="3841.59,-1516.21 3577.53,-1252.26 3572.23,-1239.57 3584,-1239.57 3847.29,-1502.8 	"/>
	<polygon points="3662.85,-1239.57 3679.55,-1256.23 3692.27,-1288.08 3643.8,-1239.57 	"/>
	<polygon points="3865.01,-1460.82 3705.44,-1301.25 3724.6,-1301.25 3870.68,-1447.4 	"/>
	<polygon points="3876.74,-1433.09 3744.86,-1301.25 3763.95,-1301.25 3882.37,-1419.67 	"/>
	<polygon points="3888.4,-1405.4 3784.29,-1301.25 3803.37,-1301.25 3894.07,-1391.94 	"/>
	<polygon points="3344.73,-1355.13 3439.98,-1450.34 3439.98,-1469.5 3344.73,-1374.25 	"/>
	<polygon points="3853.28,-1488.51 3604.3,-1239.57 3623.39,-1239.57 3858.94,-1475.11 	"/>
	<polygon points="3215.09,-1362.88 3222.7,-1351.3 3439.98,-1568.65 3439.98,-1584.93 3437.15,-1584.93 	"/>
	<polygon points="3344.73,-1276.31 3439.98,-1371.49 3439.98,-1390.62 3344.73,-1295.4 	"/>
	<polygon points="3386.87,-1239.57 3439.98,-1292.68 3439.98,-1311.8 3367.79,-1239.57 	"/>
	<polygon points="3344.73,-1239.57 3347.45,-1239.57 3439.98,-1332.1 3439.98,-1351.23 3344.73,-1255.97 	"/>
	<polygon points="3253.81,-1303.67 3263.12,-1312.94 3299.09,-1368 3246.31,-1315.22 	"/>
	<polygon points="3426.3,-1239.57 3439.98,-1253.25 3439.98,-1272.38 3407.21,-1239.57 	"/>
	<polygon points="3229.28,-1495.32 3168.27,-1434.38 3175.85,-1422.83 3236.53,-1483.53 	"/>
	<polygon points="3344.73,-1315.7 3439.98,-1410.92 3439.98,-1430.04 3344.73,-1334.82 	"/>
	<polygon points="3946.99,-1266.82 3919.77,-1239.57 3938.86,-1239.57 3952.69,-1253.4 	"/>
	<polygon points="3244.29,-1470.94 3183.9,-1410.55 3191.44,-1399 3251.61,-1459.11 	"/>
	<polygon points="3397.76,-1584.95 3199.5,-1386.68 3207.07,-1375.13 3416.81,-1584.95 	"/>
	<g>
		<path d="M89.58-573.6h9.68v66.08h31.67v8.03H89.58V-573.6z"/>
		<path d="M173.58-522.8l-7.7,23.31h-9.9l25.18-74.11h11.55L218-499.49h-10.23l-7.92-23.31H173.58z M197.88-530.28l-7.37-21.33
			c-1.54-4.84-2.64-9.24-3.74-13.52h-0.33c-0.99,4.29-2.2,8.91-3.63,13.42l-7.26,21.44H197.88z"/>
		<path d="M248.67-572.5c4.18-0.99,10.89-1.65,17.48-1.65c9.57,0,15.72,1.65,20.23,5.39c3.85,2.86,6.27,7.26,6.27,13.09
			c0,7.26-4.84,13.52-12.54,16.27v0.33c7.04,1.65,15.28,7.48,15.28,18.47c0,6.38-2.53,11.22-6.38,14.84
			c-5.06,4.73-13.42,6.93-25.51,6.93c-6.6,0-11.66-0.44-14.85-0.88V-572.5z M258.24-542.16h8.69c10.01,0,15.94-5.39,15.94-12.54
			c0-8.58-6.49-12.1-16.16-12.1c-4.4,0-6.93,0.33-8.47,0.66V-542.16z M258.24-506.75c1.98,0.33,4.62,0.44,8.03,0.44
			c9.9,0,19.02-3.63,19.02-14.4c0-10.01-8.69-14.29-19.13-14.29h-7.92V-506.75z"/>
		<path d="M356.98-498.28c-19.68,0-33.32-15.17-33.32-37.61c0-23.53,14.51-38.92,34.31-38.92c20.34,0,33.43,15.5,33.43,37.5
			c0,25.4-15.5,39.03-34.31,39.03H356.98z M357.42-506.09c15.17,0,23.75-13.96,23.75-30.79c0-14.73-7.7-30.13-23.64-30.13
			s-23.86,14.84-23.86,30.9c0,15.61,8.58,30.02,23.64,30.02H357.42z"/>
		<path d="M423.61-572.5c4.84-0.99,11.88-1.65,18.36-1.65c10.23,0,16.93,1.98,21.55,6.16c3.63,3.19,5.83,8.25,5.83,14.07
			c0,9.68-6.27,16.16-13.97,18.8v0.33c5.61,1.98,9.02,7.26,10.89,14.95c2.42,10.34,4.18,17.48,5.61,20.34h-9.9
			c-1.21-2.09-2.86-8.47-4.84-17.7c-2.2-10.23-6.27-14.07-14.95-14.4h-9.02v32.11h-9.57V-572.5z M433.18-538.86h9.79
			c10.23,0,16.71-5.61,16.71-14.07c0-9.57-6.93-13.74-17.04-13.74c-4.62,0-7.81,0.44-9.45,0.88V-538.86z"/>
		<path d="M515.08-522.8l-7.7,23.31h-9.9l25.18-74.11h11.55l25.29,74.11h-10.23l-7.92-23.31H515.08z M539.38-530.28l-7.37-21.33
			c-1.54-4.84-2.64-9.24-3.74-13.52h-0.33c-0.99,4.29-2.2,8.91-3.63,13.42l-7.26,21.44H539.38z"/>
		<path d="M595.58-565.47h-22.54v-8.14h54.87v8.14h-22.65v65.97h-9.68V-565.47z"/>
		<path d="M681.91-498.28c-19.68,0-33.32-15.17-33.32-37.61c0-23.53,14.51-38.92,34.31-38.92c20.34,0,33.43,15.5,33.43,37.5
			c0,25.4-15.5,39.03-34.31,39.03H681.91z M682.35-506.09c15.17,0,23.75-13.96,23.75-30.79c0-14.73-7.7-30.13-23.64-30.13
			c-15.94,0-23.86,14.84-23.86,30.9c0,15.61,8.58,30.02,23.64,30.02H682.35z"/>
		<path d="M748.55-572.5c4.84-0.99,11.88-1.65,18.36-1.65c10.23,0,16.93,1.98,21.55,6.16c3.63,3.19,5.83,8.25,5.83,14.07
			c0,9.68-6.27,16.16-13.97,18.8v0.33c5.61,1.98,9.02,7.26,10.89,14.95c2.42,10.34,4.18,17.48,5.61,20.34h-9.9
			c-1.21-2.09-2.86-8.47-4.84-17.7c-2.2-10.23-6.27-14.07-14.95-14.4h-9.02v32.11h-9.57V-572.5z M758.11-538.86h9.79
			c10.23,0,16.71-5.61,16.71-14.07c0-9.57-6.93-13.74-17.04-13.74c-4.62,0-7.81,0.44-9.45,0.88V-538.86z"/>
		<path d="M837.06-573.6v74.11h-9.68v-74.11H837.06z"/>
		<path d="M902.48-498.28c-19.68,0-33.32-15.17-33.32-37.61c0-23.53,14.51-38.92,34.31-38.92c20.34,0,33.43,15.5,33.43,37.5
			c0,25.4-15.5,39.03-34.31,39.03H902.48z M902.92-506.09c15.17,0,23.75-13.96,23.75-30.79c0-14.73-7.7-30.13-23.64-30.13
			c-15.94,0-23.86,14.84-23.86,30.9c0,15.61,8.58,30.02,23.64,30.02H902.92z"/>
		<path d="M1021.78-573.6v74.11h-9.68v-74.11H1021.78z"/>
		<path d="M1058.28-499.49v-74.11h10.56l23.64,37.5c5.39,8.69,9.79,16.38,13.19,24.08l0.33-0.11c-0.88-9.9-1.1-18.91-1.1-30.35
			v-31.12h9.02v74.11h-9.68l-23.53-37.61c-5.17-8.25-10.12-16.71-13.74-24.74l-0.33,0.11c0.55,9.35,0.66,18.25,0.66,30.57v31.67
			H1058.28z"/>
		<path d="M1164.5-565.47h-22.54v-8.14h54.87v8.14h-22.65v65.97h-9.68V-565.47z"/>
		<path d="M1263.13-534.24h-28.7v26.72h32.11v8.03h-41.78v-74.11h40.13v8.03h-30.46v23.42h28.7V-534.24z"/>
		<path d="M1298.75-572.5c4.84-0.99,11.88-1.65,18.36-1.65c10.23,0,16.93,1.98,21.55,6.16c3.63,3.19,5.83,8.25,5.83,14.07
			c0,9.68-6.27,16.16-13.97,18.8v0.33c5.61,1.98,9.02,7.26,10.89,14.95c2.42,10.34,4.18,17.48,5.61,20.34h-9.9
			c-1.21-2.09-2.86-8.47-4.84-17.7c-2.2-10.23-6.27-14.07-14.95-14.4h-9.02v32.11h-9.57V-572.5z M1308.32-538.86h9.79
			c10.23,0,16.71-5.61,16.71-14.07c0-9.57-6.93-13.74-17.04-13.74c-4.62,0-7.81,0.44-9.45,0.88V-538.86z"/>
		<path d="M1390.22-522.8l-7.7,23.31h-9.9l25.18-74.11h11.55l25.29,74.11h-10.23l-7.92-23.31H1390.22z M1414.52-530.28l-7.37-21.33
			c-1.54-4.84-2.64-9.24-3.74-13.52h-0.33c-0.99,4.29-2.2,8.91-3.63,13.42l-7.26,21.44H1414.52z"/>
		<path d="M1515.36-501.8c-3.41,1.76-10.56,3.52-19.57,3.52c-20.89,0-36.51-13.19-36.51-37.61c0-23.31,15.72-38.92,38.7-38.92
			c9.13,0,15.07,1.98,17.59,3.3l-2.42,7.81c-3.52-1.76-8.69-3.08-14.84-3.08c-17.37,0-28.92,11.11-28.92,30.57
			c0,18.25,10.45,29.8,28.37,29.8c5.94,0,11.88-1.21,15.72-3.08L1515.36-501.8z"/>
		<path d="M1561.32-565.47h-22.54v-8.14h54.87v8.14H1571v65.97h-9.68V-565.47z"/>
		<path d="M1631.25-573.6v74.11h-9.68v-74.11H1631.25z"/>
		<path d="M1684.03-499.49l-24.3-74.11h10.45l11.55,36.51c3.08,10.01,5.83,19.13,7.92,27.71h0.22c2.09-8.58,5.06-17.92,8.47-27.6
			l12.54-36.62h10.23l-26.5,74.11H1684.03z"/>
		<path d="M1777.39-498.28c-19.68,0-33.32-15.17-33.32-37.61c0-23.53,14.51-38.92,34.31-38.92c20.34,0,33.43,15.5,33.43,37.5
			c0,25.4-15.5,39.03-34.31,39.03H1777.39z M1777.83-506.09c15.17,0,23.75-13.96,23.75-30.79c0-14.73-7.7-30.13-23.64-30.13
			c-15.94,0-23.86,14.84-23.86,30.9c0,15.61,8.58,30.02,23.64,30.02H1777.83z"/>
		<path d="M1887.02-572.61c5.94-0.88,12.86-1.54,20.45-1.54c13.74,0,23.53,3.08,30.02,9.13c6.71,6.05,10.56,14.73,10.56,26.72
			c0,12.1-3.85,21.99-10.66,28.81c-7.04,6.93-18.47,10.67-32.88,10.67c-6.93,0-12.54-0.22-17.48-0.88V-572.61z M1896.69-506.97
			c2.42,0.44,5.94,0.44,9.68,0.44c20.45,0.11,31.56-11.44,31.56-31.45c0.11-17.7-9.79-28.59-30.02-28.59
			c-4.95,0-8.69,0.44-11.21,0.99V-506.97z"/>
		<path d="M2018.41-534.24h-28.7v26.72h32.11v8.03h-41.78v-74.11h40.13v8.03h-30.46v23.42h28.7V-534.24z"/>
		<path d="M2109.12-522.8l-7.7,23.31h-9.9l25.18-74.11h11.55l25.29,74.11h-10.23l-7.92-23.31H2109.12z M2133.42-530.28l-7.37-21.33
			c-1.54-4.84-2.64-9.24-3.74-13.52h-0.33c-0.99,4.29-2.2,8.91-3.63,13.42l-7.26,21.44H2133.42z"/>
		<path d="M2184.22-572.5c4.84-0.99,11.88-1.65,18.36-1.65c10.23,0,16.93,1.98,21.55,6.16c3.63,3.19,5.83,8.25,5.83,14.07
			c0,9.68-6.27,16.16-13.97,18.8v0.33c5.61,1.98,9.02,7.26,10.89,14.95c2.42,10.34,4.18,17.48,5.61,20.34h-9.9
			c-1.21-2.09-2.86-8.47-4.84-17.7c-2.2-10.23-6.27-14.07-14.95-14.4h-9.02v32.11h-9.57V-572.5z M2193.79-538.86h9.79
			c10.23,0,16.71-5.61,16.71-14.07c0-9.57-6.93-13.74-17.04-13.74c-4.62,0-7.81,0.44-9.45,0.88V-538.86z"/>
		<path d="M2277.78-565.47h-22.54v-8.14h54.87v8.14h-22.65v65.97h-9.68V-565.47z"/>
		<path d="M2376.41-534.24h-28.7v26.72h32.11v8.03h-41.78v-74.11h40.13v8.03h-30.46v23.42h28.7V-534.24z"/>
		<path d="M2404.36-485.86c2.42-6.6,5.39-18.36,6.6-26.39l10.78-1.1c-2.64,9.35-7.48,21.55-10.56,26.72L2404.36-485.86z"/>
		<path d="M2540.72-501.8c-3.41,1.76-10.56,3.52-19.57,3.52c-20.89,0-36.51-13.19-36.51-37.61c0-23.31,15.72-38.92,38.7-38.92
			c9.13,0,15.07,1.98,17.59,3.3l-2.42,7.81c-3.52-1.76-8.69-3.08-14.84-3.08c-17.37,0-28.92,11.11-28.92,30.57
			c0,18.25,10.45,29.8,28.37,29.8c5.94,0,11.88-1.21,15.72-3.08L2540.72-501.8z"/>
		<path d="M2582.17-573.6v74.11h-9.68v-74.11H2582.17z"/>
		<path d="M2656.94-534.24h-28.7v26.72h32.11v8.03h-41.78v-74.11h40.13v8.03h-30.46v23.42h28.7V-534.24z"/>
		<path d="M2692.56-499.49v-74.11h10.56l23.64,37.5c5.39,8.69,9.79,16.38,13.19,24.08l0.33-0.11c-0.88-9.9-1.1-18.91-1.1-30.35
			v-31.12h9.02v74.11h-9.68l-23.53-37.61c-5.17-8.25-10.12-16.71-13.74-24.74l-0.33,0.11c0.55,9.35,0.66,18.25,0.66,30.57v31.67
			H2692.56z"/>
		<path d="M2836.38-501.8c-3.41,1.76-10.56,3.52-19.57,3.52c-20.89,0-36.51-13.19-36.51-37.61c0-23.31,15.72-38.92,38.7-38.92
			c9.13,0,15.07,1.98,17.59,3.3l-2.42,7.81c-3.52-1.76-8.69-3.08-14.84-3.08c-17.37,0-28.92,11.11-28.92,30.57
			c0,18.25,10.45,29.8,28.37,29.8c5.94,0,11.88-1.21,15.72-3.08L2836.38-501.8z"/>
		<path d="M2877.83-573.6v74.11h-9.68v-74.11H2877.83z"/>
		<path d="M2926.32-522.8l-7.7,23.31h-9.9l25.18-74.11h11.55l25.29,74.11h-10.23l-7.92-23.31H2926.32z M2950.62-530.28l-7.37-21.33
			c-1.54-4.84-2.64-9.24-3.74-13.52h-0.33c-0.99,4.29-2.2,8.91-3.63,13.42l-7.26,21.44H2950.62z"/>
		<path d="M3055.97-499.49v-31.45l-23.53-42.66h11l10.45,20.45c2.75,5.61,5.06,10.12,7.37,15.28h0.22
			c1.98-4.84,4.62-9.68,7.48-15.28l10.66-20.45h10.78l-24.74,42.55v31.56H3055.97z"/>
		<path d="M3171.44-565.47h-22.54v-8.14h54.87v8.14h-22.65v65.97h-9.68V-565.47z"/>
		<path d="M3270.07-534.24h-28.7v26.72h32.11v8.03h-41.78v-74.11h40.13v8.03h-30.46v23.42h28.7V-534.24z"/>
		<path d="M3357.38-501.8c-3.41,1.76-10.56,3.52-19.57,3.52c-20.89,0-36.51-13.19-36.51-37.61c0-23.31,15.72-38.92,38.7-38.92
			c9.13,0,15.07,1.98,17.59,3.3l-2.42,7.81c-3.52-1.76-8.69-3.08-14.84-3.08c-17.37,0-28.92,11.11-28.92,30.57
			c0,18.25,10.45,29.8,28.37,29.8c5.94,0,11.88-1.21,15.72-3.08L3357.38-501.8z"/>
		<path d="M3389.26-499.49v-74.11h10.56l23.64,37.5c5.39,8.69,9.79,16.38,13.19,24.08l0.33-0.11c-0.88-9.9-1.1-18.91-1.1-30.35
			v-31.12h9.02v74.11h-9.68l-23.53-37.61c-5.17-8.25-10.12-16.71-13.74-24.74l-0.33,0.11c0.55,9.35,0.66,18.25,0.66,30.57v31.67
			H3389.26z"/>
		<path d="M3510.32-498.28c-19.68,0-33.32-15.17-33.32-37.61c0-23.53,14.51-38.92,34.31-38.92c20.34,0,33.43,15.5,33.43,37.5
			c0,25.4-15.5,39.03-34.31,39.03H3510.32z M3510.76-506.09c15.17,0,23.75-13.96,23.75-30.79c0-14.73-7.7-30.13-23.64-30.13
			s-23.86,14.84-23.86,30.9c0,15.61,8.58,30.02,23.64,30.02H3510.76z"/>
		<path d="M3576.84-573.6h9.68v66.08h31.67v8.03h-41.34V-573.6z"/>
		<path d="M3673.29-498.28c-19.68,0-33.32-15.17-33.32-37.61c0-23.53,14.51-38.92,34.31-38.92c20.34,0,33.43,15.5,33.43,37.5
			c0,25.4-15.5,39.03-34.31,39.03H3673.29z M3673.73-506.09c15.18,0,23.75-13.96,23.75-30.79c0-14.73-7.7-30.13-23.64-30.13
			s-23.86,14.84-23.86,30.9c0,15.61,8.58,30.02,23.64,30.02H3673.73z"/>
		<path d="M3796.44-502.79c-4.29,1.65-12.86,4.07-22.87,4.07c-11.21,0-20.45-2.86-27.71-9.79c-6.38-6.16-10.34-16.05-10.34-27.6
			c0-22.1,15.28-38.26,40.13-38.26c8.58,0,15.39,1.87,18.58,3.41l-2.42,7.81c-3.96-1.87-8.91-3.19-16.38-3.19
			c-18.03,0-29.8,11.22-29.8,29.8c0,18.8,11.22,29.91,28.59,29.91c6.27,0,10.56-0.88,12.76-1.98v-22.1h-14.95v-7.7h24.41V-502.79z"
			/>
		<path d="M3851.75-590.54l-14.07,12.98h-7.81l10.34-12.98H3851.75z M3840.31-573.6v74.11h-9.68v-74.11H3840.31z"/>
		<path d="M3888.8-522.8l-7.7,23.31h-9.9l25.18-74.11h11.55l25.29,74.11H3923l-7.92-23.31H3888.8z M3913.1-530.28l-7.37-21.33
			c-1.54-4.84-2.64-9.24-3.74-13.52h-0.33c-0.99,4.29-2.2,8.91-3.63,13.42l-7.26,21.44H3913.1z"/>
	</g>
	<path d="M2164.95-990.61h65.17c16.56,0,29.6,4.6,37.9,12.86c6.45,6.45,9.77,14.3,9.77,24.06v0.42c0,17.44-9.98,26.74-20.75,32.32
		c17.01,5.79,28.83,15.51,28.83,35.28v0.38c0,25.94-21.34,39.78-53.69,39.78h-67.23V-990.61z M2224.89-929.42
		c16.35,0,27.37-6.41,27.37-19.73v-0.42c0-11.4-9.1-18.42-25.49-18.42h-36.71v38.57H2224.89z M2232.38-868.05
		c17.44,0,27.96-6.87,27.96-19.87v-0.45c0-12.24-9.73-19.52-29.85-19.52h-40.44v39.85H2232.38z"/>
	<path d="M2474.22-917.6v-0.42c0-40.87,31.52-75.11,76.08-75.11c44.63,0,75.73,33.82,75.73,74.72v0.39
		c0,40.86-31.52,75.07-76.15,75.07C2505.32-842.95,2474.22-876.76,2474.22-917.6 M2599.26-917.6v-0.42
		c0-28.25-20.5-51.67-49.37-51.67c-28.8,0-48.92,23.01-48.92,51.29v0.39c0,28.2,20.54,51.61,49.34,51.61
		C2579.14-866.41,2599.26-889.46,2599.26-917.6"/>
	<path d="M2816.45-917.6v-0.42c0-40.69,31.14-75.11,74.87-75.11c25.31,0,40.86,7.11,55.79,19.7l-16.14,19.32
		c-11.23-9.6-22.21-15.59-40.66-15.59c-26.78,0-47.07,23.43-47.07,51.29v0.39c0,29.81,19.66,51.85,49.34,51.85
		c13.66,0,26.15-4.4,35.04-10.99v-27.2h-37.13v-22.18h61.79v60.95c-14.3,12.24-34.8,22.63-60.53,22.63
		C2846.34-842.95,2816.45-875.34,2816.45-917.6"/>
	<path d="M3145.02-917.6v-0.42c0-40.87,31.49-75.11,76.08-75.11c44.63,0,75.74,33.82,75.74,74.72v0.39
		c0,40.86-31.56,75.07-76.15,75.07C3176.12-842.95,3145.02-876.76,3145.02-917.6 M3270.05-917.6v-0.42
		c0-28.25-20.5-51.67-49.37-51.67c-28.77,0-48.96,23.01-48.96,51.29v0.39c0,28.2,20.54,51.61,49.38,51.61
		C3249.97-866.41,3270.05-889.46,3270.05-917.6"/>
	<polygon points="3521.45,-967 3475.39,-967 3475.39,-990.61 3593.2,-990.61 3593.2,-967 3547.11,-967 3547.11,-845.49 
		3521.45,-845.49 	"/>
	<path d="M3818.88-991.62h23.64l63.87,146.13h-26.91l-14.78-34.97h-68.62l-14.93,34.97h-26.11L3818.88-991.62z M3855.38-903.09
		l-25.07-58.09l-24.93,58.09H3855.38z M3843.56-1034.82l22.8,9.97l-26.5,20.09h-19.52L3843.56-1034.82z"/>
	<rect x="2107.69" y="-1152.15" width="1848.32" height="24.2"/>
	<g>
		<polygon points="1961.13,-2573.78 1961.13,-2584.15 1950.8,-2584.15 		"/>
		<polygon points="1860.71,-2584.15 1961.13,-2483.68 1961.13,-2522.43 1899.43,-2584.15 		"/>
		<polygon points="1770.64,-2584.15 1961.15,-2393.64 1961.15,-2432.37 1809.37,-2584.15 		"/>
		<polygon points="1680.55,-2584.15 1961.13,-2303.52 1961.13,-2342.25 1719.31,-2584.15 		"/>
		<polygon points="1590.52,-2584.15 1961.13,-2213.5 1961.13,-2252.19 1629.25,-2584.15 		"/>
		<polygon points="1250.09,-1518.1 1288.82,-1518.1 1947.11,-2176.26 1539.13,-2584.13 1500.37,-2584.13 1908.24,-2176.26 		"/>
		<polygon points="1590.73,-1948.77 1590.73,-1910.08 1857.19,-2176.27 1847.21,-2185.96 1449.05,-2584.15 1410.36,-2584.15 
			1818.2,-2176.27 		"/>
		<polygon points="1590.73,-2038.83 1590.73,-2000.11 1767.25,-2176.27 1358.95,-2584.15 1320.26,-2584.15 1728.13,-2176.27 		"/>
		<polygon points="1590.73,-2128.93 1590.73,-2090.24 1676.4,-2176.26 1268.91,-2584.13 1230.18,-2584.13 1638.02,-2176.26 		"/>
		<polygon points="1549.27,-2213.71 1178.83,-2584.15 1140.1,-2584.15 1510.54,-2213.71 		"/>
		<polygon points="1459.17,-2213.71 1088.77,-2584.15 1050.07,-2584.15 1420.48,-2213.71 		"/>
		<polygon points="1369.07,-2213.71 998.67,-2584.15 959.94,-2584.15 1330.38,-2213.71 		"/>
		<polygon points="1279.05,-2213.71 908.64,-2584.15 869.88,-2584.15 1240.28,-2213.71 		"/>
		<polygon points="1188.95,-2213.71 818.51,-2584.15 779.81,-2584.15 1150.22,-2213.71 		"/>
		<polygon points="1098.89,-2213.71 728.48,-2584.15 689.75,-2584.15 1060.16,-2213.71 		"/>
		<polygon points="1008.82,-2213.71 638.35,-2584.15 599.62,-2584.15 970.09,-2213.71 		"/>
		<polygon points="918.69,-2213.71 548.32,-2584.15 509.63,-2584.15 880.03,-2213.71 		"/>
		<polygon points="828.63,-2213.71 458.22,-2584.15 419.49,-2584.15 789.9,-2213.71 		"/>
		<polygon points="738.56,-2213.71 368.16,-2584.15 329.43,-2584.15 699.84,-2213.71 		"/>
		<polygon points="648.5,-2213.71 278.03,-2584.15 239.3,-2584.15 609.77,-2213.71 		"/>
		<polygon points="1882.63,-1212.51 1881.98,-1211.78 1961.12,-1132.68 1961.12,-1171.41 1902.03,-1230.51 1961.12,-1289.72 
			1961.12,-1328.42 1863.95,-1231.18 		"/>
		<polygon points="1792.57,-1212.51 1791.92,-1211.78 1961.13,-1042.61 1961.13,-1081.27 1811.96,-1230.51 1961.13,-1379.75 
			1961.13,-1418.48 1773.88,-1231.18 		"/>
		<polygon points="1702.5,-1212.51 1701.85,-1211.78 1961.13,-952.55 1961.13,-991.24 1721.83,-1230.51 1961.13,-1469.85 
			1961.13,-1508.58 1683.82,-1231.18 		"/>
		<polygon points="1612.44,-1212.51 1611.76,-1211.78 1961.15,-862.42 1961.15,-901.14 1631.77,-1230.51 1961.15,-1559.89 
			1961.15,-1598.62 1593.76,-1231.18 		"/>
		<polygon points="1549.48,-1184.08 1919.89,-813.67 1958.52,-813.67 1588.17,-1184.08 		"/>
		<polygon points="1459.35,-1184.08 1829.75,-813.67 1868.48,-813.67 1498.08,-1184.08 		"/>
		<polygon points="1369.28,-1184.08 1739.72,-813.67 1778.42,-813.67 1408.01,-1184.08 		"/>
		<polygon points="1279.22,-1184.08 1649.56,-813.67 1688.36,-813.67 1317.92,-1184.08 		"/>
		<polygon points="1189.16,-1184.08 1559.53,-813.67 1598.29,-813.67 1227.89,-1184.08 		"/>
		<polygon points="1099.03,-1184.08 1469.43,-813.67 1508.16,-813.67 1137.79,-1184.08 		"/>
		<polygon points="1008.96,-1184.08 1379.37,-813.67 1418.1,-813.67 1047.69,-1184.08 		"/>
		<polygon points="918.9,-1184.08 1289.31,-813.67 1328,-813.67 957.63,-1184.08 		"/>
		<polygon points="828.84,-1184.08 1199.24,-813.67 1237.97,-813.67 867.57,-1184.08 		"/>
		<polygon points="738.77,-1184.08 1109.15,-813.67 1147.84,-813.67 777.5,-1184.08 		"/>
		<polygon points="648.68,-1184.08 1019.08,-813.67 1057.81,-813.67 687.37,-1184.08 		"/>
		<polygon points="561.1,-1184.08 561.1,-1220.29 550.88,-1230.51 561.1,-1240.77 561.1,-1279.54 512.76,-1231.18 531.55,-1212.51 
			530.85,-1211.81 928.99,-813.67 967.71,-813.67 597.31,-1184.08 		"/>
		<polygon points="561.1,-1330.87 561.1,-1369.56 422.77,-1231.18 441.41,-1212.51 440.8,-1211.81 838.96,-813.67 877.65,-813.67 
			460.78,-1230.51 		"/>
		<polygon points="561.1,-1420.93 561.1,-1459.66 332.65,-1231.18 351.37,-1212.48 350.72,-1211.81 748.84,-813.67 787.54,-813.67 
			370.66,-1230.51 		"/>
		<polygon points="561.1,-1511.03 561.1,-1518.09 568.16,-1518.09 938.63,-1888.53 899.92,-1888.53 242.59,-1231.18 
			261.31,-1212.51 260.62,-1211.81 658.82,-813.67 697.54,-813.67 280.63,-1230.51 		"/>
		<polygon points="190.7,-1191.71 568.7,-813.67 607.39,-813.67 190.7,-1230.37 		"/>
		<polygon points="190.7,-1101.58 478.65,-813.67 517.35,-813.67 190.7,-1140.31 		"/>
		<polygon points="190.7,-1011.52 388.56,-813.67 427.29,-813.67 190.7,-1050.25 		"/>
		<polygon points="190.7,-921.46 298.48,-813.67 337.21,-813.67 190.7,-960.15 		"/>
		<polygon points="190.7,-831.36 208.41,-813.67 247.09,-813.67 190.7,-870.05 		"/>
		<polygon points="225.85,-2185.98 190.71,-2221.11 190.71,-2182.38 196.84,-2176.26 190.71,-2170.16 190.71,-2131.44 
			235.46,-2176.26 		"/>
		<polygon points="325.65,-2176.27 315.93,-2185.99 190.68,-2311.21 190.68,-2272.48 286.89,-2176.27 190.68,-2080.07 
			190.68,-2041.34 315.93,-2166.56 		"/>
		<polygon points="190.7,-2401.26 190.7,-2362.56 376.97,-2176.29 190.7,-1989.97 190.7,-1951.29 416.06,-2176.29 		"/>
		<polygon points="190.7,-2491.35 190.7,-2452.66 467.05,-2176.27 190.7,-1899.89 190.7,-1861.25 505.81,-2176.27 		"/>
		<polygon points="561.1,-2210.98 190.7,-2581.42 190.7,-2542.72 557.16,-2176.26 190.7,-1809.84 190.7,-1771.12 561.1,-2141.56 		
			"/>
		<polygon points="561.1,-2090.17 190.7,-1719.76 190.7,-1681.03 561.1,-2051.44 		"/>
		<polygon points="561.1,-2000.11 190.7,-1629.7 190.7,-1590.97 561.1,-1961.38 		"/>
		<polygon points="561.1,-1888.54 561.1,-1910.06 190.7,-1539.66 190.7,-1500.89 578.31,-1888.54 		"/>
		<polygon points="629.66,-1888.54 190.7,-1449.58 190.7,-1410.85 668.39,-1888.54 		"/>
		<polygon points="719.8,-1888.54 190.7,-1359.44 190.7,-1320.75 758.49,-1888.54 		"/>
		<polygon points="809.86,-1888.54 190.68,-1269.38 190.68,-1230.65 848.59,-1888.54 		"/>
		<polygon points="619.58,-1518.1 658.27,-1518.1 1028.71,-1888.54 990.02,-1888.54 		"/>
		<polygon points="1118.77,-1888.54 1080.08,-1888.54 709.68,-1518.1 748.37,-1518.1 		"/>
		<polygon points="1208.87,-1888.54 1170.18,-1888.54 799.7,-1518.1 838.43,-1518.1 		"/>
		<polygon points="1298.97,-1888.54 1260.24,-1888.54 889.8,-1518.1 928.53,-1518.1 		"/>
		<polygon points="1389.03,-1888.54 1350.31,-1888.54 979.86,-1518.1 1018.56,-1518.1 		"/>
		<polygon points="1479.1,-1888.54 1440.37,-1888.54 1069.96,-1518.1 1108.66,-1518.1 		"/>
		<polygon points="1569.19,-1888.54 1530.43,-1888.54 1160.03,-1518.1 1198.75,-1518.1 		"/>
		<polygon points="1378.88,-1518.1 1961.12,-2100.38 1961.12,-2139.1 1340.19,-1518.1 		"/>
		<polygon points="1468.94,-1518.1 1961.15,-2010.31 1961.15,-2049.04 1430.25,-1518.1 		"/>
		<polygon points="1559,-1518.1 1961.13,-1920.27 1961.13,-1958.93 1520.35,-1518.1 		"/>
		<polygon points="1590.73,-1369.6 1961.13,-1740.07 1961.13,-1778.8 1590.73,-1408.33 		"/>
		<polygon points="1590.73,-1279.54 1961.13,-1650.01 1961.13,-1688.7 1590.73,-1318.23 		"/>
		<polygon points="1961.13,-1224.03 1961.13,-1238.32 1953.99,-1231.18 		"/>
		<polygon points="1590.73,-1459.7 1961.13,-1830.13 1961.13,-1868.86 1590.73,-1498.39 		"/>
	</g>
</g>
<g>
	<polygon class="st0" points="2645.83,364.94 2550.1,460.66 2550.1,479.75 2645.83,384.06 	"/>
	<polygon class="st0" points="2645.83,404.36 2550.1,500.09 2550.1,519.18 2645.83,423.52 	"/>
	<polygon class="st0" points="2645.83,443.82 2550.1,539.52 2550.1,558.64 2645.83,462.91 	"/>
	<polygon class="st0" points="2645.83,325.51 2550.1,421.24 2550.1,440.36 2645.83,344.6 	"/>
	<path class="st0" d="M2627.37,1468.69l202.86-202.91c-5.4-0.83-11.1-1.54-16.99-2.02l-185.87,185.82V1468.69z"/>
	<polygon class="st0" points="2624.17,307.82 2550.1,381.78 2550.1,400.96 2643.26,307.82 	"/>
	<polygon class="st0" points="2715.71,792.65 2539.73,968.67 2525.71,1001.79 2721.37,806.02 	"/>
	<polygon class="st0" points="2744.83,861.5 2739.13,848.09 2481.95,1105.24 2471.76,1129.42 2476.91,1129.42 	"/>
	<polygon class="st0" points="2645.83,483.25 2550.1,578.94 2550.1,598.03 2645.83,502.37 	"/>
	<polygon class="st0" points="2727.47,820.38 2510.86,1036.93 2496.88,1070.06 2733.1,833.79 	"/>
	<path class="st0" d="M2262.46,554.45c5.55,0,11-0.22,16.36-0.57l131.77-131.81c-0.22-5.94-0.81-11.71-1.8-17.29l-149.65,149.67
		H2262.46z"/>
	<polygon class="st0" points="2645.83,522.67 2550.1,618.4 2550.1,637.45 2645.83,541.8 	"/>
	<polygon class="st0" points="2550.1,307.82 2550.1,322.09 2564.37,307.82 	"/>
	<polygon class="st0" points="2652.71,653.12 2736.59,569.25 2717.43,569.25 2633.58,653.12 	"/>
	<polygon class="st0" points="2754.72,1127.62 2826.77,1055.53 2821.14,1042.09 2749.25,1114.07 	"/>
	<polygon class="st0" points="2737.74,1086.06 2743.29,1099.58 2815.11,1027.77 2809.42,1014.36 	"/>
	<polygon class="st0" points="2731.59,653.12 2813.05,571.66 2813.05,569.25 2796.36,569.25 2712.47,653.12 	"/>
	<polygon class="st0" points="2792.35,1129.42 2838.58,1083.17 2832.88,1069.84 2773.22,1129.42 	"/>
	<polygon class="st0" points="2831.77,1129.42 2850.23,1110.92 2844.53,1097.48 2812.65,1129.42 	"/>
	<polygon class="st0" points="2856.26,1125.19 2852.07,1129.4 2858.07,1129.4 	"/>
	<polygon class="st0" points="2613.28,653.12 2697.13,569.25 2678.04,569.25 2594.19,653.12 	"/>
	<polygon class="st0" points="2403.17,789.82 2325.06,867.94 2344.11,867.94 2403.17,808.91 	"/>
	<polygon class="st0" points="2645.83,562.06 2554.77,653.12 2573.89,653.12 2657.74,569.25 2645.83,569.25 	"/>
	<polygon class="st0" points="2554.62,933.47 2706.44,781.62 2687.35,781.62 2568.56,900.37 	"/>
	<polygon class="st0" points="2583.49,865.18 2667.05,781.6 2647.96,781.6 2597.47,832.11 	"/>
	<polygon class="st0" points="2692.13,653.12 2776.02,569.25 2756.9,569.25 2673,653.12 	"/>
	<polygon class="st0" points="2612.32,796.85 2627.62,781.64 2618.8,781.64 	"/>
	<polygon class="st0" points="2584.7,307.82 2550.1,342.39 2550.1,361.48 2603.83,307.82 	"/>
	<polygon class="st0" points="2151.06,307.82 2119.4,339.41 2119.4,358.55 2170.11,307.82 	"/>
	<polygon class="st0" points="2190.49,307.82 2119.4,378.84 2119.4,397.98 2209.54,307.82 	"/>
	<polygon class="st0" points="2229.88,307.82 2119.4,418.28 2119.4,437.33 2248.97,307.82 	"/>
	<polygon class="st0" points="2119.4,307.82 2119.4,319.04 2130.65,307.82 	"/>
	<path class="st0" d="M2410.38,442.72l-108.27,108.27c8.94-1.58,17.43-3.81,25.49-6.47l78.59-78.52
		C2408.25,458.61,2409.61,450.88,2410.38,442.72"/>
	<path class="st0" d="M2238.85,554.45l165.94-165.96c-1.51-4.76-3.42-9.19-5.48-13.61l-179.58,179.57H2238.85z"/>
	<path class="st0" d="M2383.53,351.25L2119.4,615.44v19.05l272.45-272.46C2389.31,358.3,2386.59,354.64,2383.53,351.25"/>
	<path class="st0" d="M2269.23,307.82L2119.4,457.67v19.09l168.03-168.07C2281.51,308.19,2275.48,307.89,2269.23,307.82"/>
	<polygon class="st0" points="2299.57,867.94 2304.68,867.94 2388.57,784.07 2369.41,784.07 2203.84,949.65 2203.84,968.8 
		2299.57,873.1 	"/>
	<polygon class="st0" points="2100.27,784.08 2100.27,796.4 2112.56,784.08 	"/>
	<path class="st0" d="M2362.53,332.83l-243.13,243.1v19.16l253.95-254C2369.93,338.18,2366.4,335.35,2362.53,332.83"/>
	<path class="st0" d="M2336.46,319.44L2119.4,536.55v19.05l230.3-230.3C2345.51,323.21,2341.06,321.24,2336.46,319.44"/>
	<path class="st0" d="M2305.42,311.06L2119.4,497.09v19.11l201.72-201.63C2316.04,313.21,2310.83,311.99,2305.42,311.06"/>
	<polygon class="st0" points="2299.57,1051.05 2221.23,1129.42 2240.4,1129.42 2299.57,1070.21 	"/>
	<polygon class="st0" points="2215.09,617.63 2215.09,598.51 2160.52,653.1 2179.6,653.1 	"/>
	<polygon class="st0" points="2147.06,867.94 2230.87,784.07 2211.78,784.07 2127.93,867.94 	"/>
	<polygon class="st0" points="2215.09,637.97 2199.9,653.1 2215.09,653.1 	"/>
	<polygon class="st0" points="2215.09,559.08 2121.09,653.12 2140.18,653.12 2215.09,578.2 	"/>
	<polygon class="st0" points="2403.17,848.33 2403.17,829.21 2364.48,867.95 2383.57,867.95 	"/>
	<polygon class="st0" points="2299.57,1109.63 2299.57,1090.55 2260.7,1129.4 2279.82,1129.4 	"/>
	<polygon class="st0" points="2203.84,929.35 2349.15,784.1 2330.02,784.1 2203.84,910.27 	"/>
	<polygon class="st0" points="2299.57,1011.66 2203.84,1107.35 2203.84,1126.52 2299.57,1030.75 	"/>
	<path class="st0" d="M2112.27,1392.41l129.9-129.86c-10.37,2.72-20.19,6.22-29.64,10.48l-90.58,90.56
		C2117.89,1372.83,2114.77,1382.43,2112.27,1392.41"/>
	<polygon class="st0" points="2203.84,870.8 2203.84,889.93 2309.76,784.08 2290.64,784.08 	"/>
	<polygon class="st0" points="2299.57,972.23 2203.84,1067.97 2203.84,1087.09 2299.57,991.32 	"/>
	<polygon class="st0" points="2299.57,893.42 2203.84,989.08 2203.84,1008.2 2299.57,912.51 	"/>
	<polygon class="st0" points="2167.32,867.94 2186.45,867.94 2270.3,784.07 2251.21,784.07 	"/>
	<polygon class="st0" points="3197.74,384.13 3192,370.76 2936.48,626.29 2925.11,653.14 2928.72,653.14 	"/>
	<polygon class="st0" points="2990.32,1089.15 3152.8,926.65 3133.71,926.65 2990.32,1070.06 	"/>
	<polygon class="st0" points="3113.6,867.94 3132.65,867.94 3216.53,784.07 3197.41,784.07 	"/>
	<polygon class="st0" points="2990.32,1049.69 3113.37,926.61 3094.25,926.61 2990.32,1030.6 	"/>
	<polygon class="st0" points="2990.32,1010.26 3086.05,914.57 3086.05,895.48 2990.32,991.14 	"/>
	<polygon class="st0" points="3231.68,926.63 3212.53,926.63 3133.09,1006.09 3152.21,1006.09 	"/>
	<polygon class="st0" points="3236.87,784.08 3152.95,867.95 3172.07,867.95 3255.96,784.08 	"/>
	<polygon class="st0" points="3079.94,1370.13 3183.44,1266.63 3181.04,1262.72 3168.17,1262.72 3079.94,1351.04 	"/>
	<polygon class="st0" points="3079.94,1448.98 3213.48,1315.37 3206.2,1303.58 3079.94,1429.89 	"/>
	<polygon class="st0" points="3079.94,1409.51 3198.4,1291 3191.19,1279.18 3079.94,1390.43 	"/>
	<polygon class="st0" points="3079.94,1488.36 3228.52,1339.8 3221.24,1327.98 3079.94,1469.31 	"/>
	<polygon class="st0" points="3079.94,1330.74 3147.87,1262.72 3128.78,1262.72 3079.94,1311.61 	"/>
	<polygon class="st0" points="3093.66,1006.11 3112.79,1006.11 3192.22,926.65 3173.1,926.65 	"/>
	<polygon class="st0" points="3079.94,1291.24 3108.41,1262.74 3089.28,1262.74 3079.94,1272.15 	"/>
	<polygon class="st0" points="3836.89,1303.74 3613.43,1527.13 3599.46,1560.26 3842.52,1317.15 	"/>
	<polygon class="st0" points="3825.12,1275.98 3642.3,1458.91 3628.29,1491.93 3830.82,1289.46 	"/>
	<polygon class="st0" points="3818.46,1260.31 3801.44,1260.31 3671.17,1390.57 3657.16,1423.64 3819.09,1261.71 	"/>
	<polygon class="st0" points="3249.3,987.83 3249.3,968.7 3211.94,1006.09 3231.1,1006.09 	"/>
	<polygon class="st0" points="3384.38,1262.74 3365.34,1262.74 3314.54,1313.47 3283.91,1363.25 	"/>
	<polygon class="st0" points="3762.01,1260.31 3700.04,1322.3 3686.03,1355.32 3781.1,1260.31 	"/>
	<polygon class="st0" points="3726.23,1260.31 3714.9,1287.05 3741.71,1260.31 	"/>
	<polygon class="st0" points="2990.32,892.02 3098.26,784.08 3079.13,784.08 2990.32,872.9 	"/>
	<polygon class="st0" points="2990.32,970.84 3086.05,875.14 3086.05,867.95 3093.26,867.95 3177.11,784.08 3157.98,784.08 
		2990.32,951.75 	"/>
	<polygon class="st0" points="2990.32,794.09 2990.32,813.14 3019.41,784.07 3000.28,784.07 	"/>
	<polygon class="st0" points="2990.32,931.45 3137.69,784.08 3118.6,784.08 2990.32,912.36 	"/>
	<polygon class="st0" points="3283.54,653.12 3303.07,633.54 3297.41,620.09 3264.42,653.12 	"/>
	<polygon class="st0" points="3309.14,647.86 3303.84,653.14 3311.38,653.14 	"/>
	<polygon class="st0" points="2990.32,852.6 3058.83,784.1 3039.71,784.1 2990.32,833.51 	"/>
	<polygon class="st0" points="2731.89,1071.61 2803.35,1000.09 2797.72,986.61 2716.59,1067.73 2730.3,1067.73 	"/>
	<polygon class="st0" points="2627.37,1310.99 2675.65,1262.74 2656.56,1262.74 2627.37,1291.83 	"/>
	<path class="st0" d="M2627.37,1488.99v19.09l234.12-234.12c-4.56-1.69-9.42-3.24-14.49-4.52L2627.37,1488.99z"/>
	<polygon class="st0" points="2627.37,1271.53 2636.19,1262.75 2627.37,1262.75 	"/>
	<path class="st0" d="M2627.37,1547.54l260.2-260.16c-3.79-2.59-7.76-4.93-12.03-7.15l-248.17,248.19V1547.54z"/>
	<polygon class="st0" points="2132.9,784.08 2100.27,816.7 2100.27,835.83 2152.02,784.08 	"/>
	<path class="st0" d="M2627.37,1586.96l281.05-281.01c-1.65-1.97-3.31-3.91-5.18-5.72c-1.36-1.4-2.94-2.61-4.34-3.88l-271.52,271.53
		V1586.96z"/>
	<path class="st0" d="M2627.37,1429.26l166.41-166.42c-1.03,0-1.99-0.11-3.09-0.11h-15.85l-147.48,147.4V1429.26z"/>
	<polygon class="st0" points="2677.2,1067.74 2696.29,1067.74 2791.69,972.38 2786.02,958.9 	"/>
	<polygon class="st0" points="2656.86,1067.74 2779.96,944.63 2774.33,931.23 2637.74,1067.74 	"/>
	<polygon class="st0" points="2627.37,1389.84 2754.51,1262.74 2735.38,1262.74 2627.37,1370.75 	"/>
	<polygon class="st0" points="2627.37,1350.41 2715.08,1262.74 2695.96,1262.74 2627.37,1331.33 	"/>
	<polygon class="st0" points="2813.05,650.51 2813.05,631.39 2791.32,653.1 2810.44,653.1 	"/>
	<polygon class="st0" points="2813.05,591.96 2751.89,653.12 2771.02,653.12 2813.05,611.08 	"/>
	<polygon class="st0" points="3196.16,622.23 3267.98,550.42 3262.29,536.96 3190.61,608.68 	"/>
	<polygon class="st0" points="3244.12,653.12 3291.38,605.83 3285.67,592.42 3224.99,653.12 	"/>
	<polygon class="st0" points="3180.31,343.01 2965.31,557.98 2951.26,591.11 3185.97,356.42 	"/>
	<polygon class="st0" points="3183.62,591.48 3184.76,594.2 3256.26,522.71 3250.62,509.27 3168.36,591.48 	"/>
	<polygon class="st0" points="3249.3,929.28 3172.51,1006.11 3191.64,1006.11 3249.3,948.4 	"/>
	<polygon class="st0" points="3266.59,793.72 3192.37,867.95 3211.53,867.95 3266.59,812.84 	"/>
	<polygon class="st0" points="3266.59,852.3 3266.59,833.18 3231.83,867.94 3250.92,867.94 	"/>
	<polygon class="st0" points="3207.63,650.21 3279.68,578.13 3274.02,564.69 3202.04,636.66 	"/>
	<polygon class="st0" points="3139.16,305.32 3023.01,421.42 3009.07,454.49 3158.24,305.32 	"/>
	<polygon class="st0" points="3168.58,315.32 2994.14,489.72 2980.17,522.84 3174.28,328.73 	"/>
	<polygon class="st0" points="3099.77,305.32 3051.88,353.15 3037.87,386.17 3118.82,305.32 	"/>
	<polygon class="st0" points="3148.05,591.48 3244.52,494.96 3238.82,481.55 3128.93,591.48 	"/>
	<polygon class="st0" points="3108.67,591.48 3232.79,467.25 3227.13,453.84 3089.54,591.48 	"/>
	<polygon class="st0" points="3072.07,305.32 3066.78,317.9 3079.36,305.32 	"/>
	<polygon class="st0" points="2299.57,932.81 2203.84,1028.58 2203.84,1047.66 2299.57,951.93 	"/>
	<polygon class="st0" points="2879.8,1512.64 2814.49,1577.88 2822.14,1589.35 2887.56,1523.96 	"/>
	<polygon class="st0" points="2911.84,1559.38 2863.14,1608.11 2882.27,1608.11 2919.56,1570.74 	"/>
	<path class="st0" d="M2342.01,1261.85l-227.32,227.25c1.51,4.78,3.2,9.45,5.07,14.08l237.03-237.08
		C2352.05,1264.48,2347.05,1263.11,2342.01,1261.85"/>
	<polygon class="st0" points="2902.57,1608.11 2921.66,1608.11 2935.63,1594.13 2927.83,1582.84 	"/>
	<path class="st0" d="M2307.96,1256.48l-199.92,199.92c0.63,5.63,1.4,11.14,2.58,16.55l214.45-214.5
		C2319.47,1257.53,2313.73,1256.91,2307.96,1256.48"/>
	<polygon class="st0" points="2863.77,1489.21 2798.79,1554.19 2806.4,1565.63 2871.49,1500.54 	"/>
	<polygon class="st0" points="3079.94,1527.79 3173.58,1434.08 3173.58,1414.96 3079.94,1508.7 	"/>
	<path class="st0" d="M2267.35,1257.66l-159.5,159.54c-0.66,6-0.96,12.06-0.96,18.2v0.96c0,0.33,0.04,0.59,0.04,0.81l181.13-181.09
		C2281,1256.23,2274.12,1256.8,2267.35,1257.66"/>
	<polygon class="st0" points="2191.44,784.08 2172.32,784.08 2100.27,856.17 2100.27,867.95 2107.59,867.95 	"/>
	<polygon class="st0" points="2895.76,1535.99 2830.23,1601.56 2834.57,1608.11 2842.84,1608.11 2903.52,1547.35 	"/>
	<polygon class="st0" points="3079.94,1606.68 3173.58,1512.93 3173.58,1493.81 3079.94,1587.63 	"/>
	<polygon class="st0" points="3117.9,1608.11 3173.62,1552.39 3173.62,1533.23 3098.81,1608.11 	"/>
	<polygon class="st0" points="3203.7,398.44 2949.02,653.14 2968.14,653.14 3209.4,411.84 	"/>
	<polygon class="st0" points="3079.94,1567.25 3173.58,1473.51 3173.58,1454.42 3079.94,1548.2 	"/>
	<polygon class="st0" points="3157.32,1608.11 3173.58,1591.78 3173.58,1572.69 3138.2,1608.11 	"/>
	<polygon class="st0" points="3037.84,622.82 3050.38,591.48 3069.24,591.48 3221.13,439.55 3215.43,426.08 2988.44,653.14 
		3007.57,653.14 	"/>
	<polygon class="st0" points="3086.05,1013.72 2990.32,1109.45 2990.32,1128.58 3086.05,1032.84 	"/>
	<polygon class="st0" points="3086.05,1092.64 3049.16,1129.44 3068.32,1129.44 3086.05,1111.69 	"/>
	<polygon class="st0" points="3086.05,1053.14 3009.77,1129.4 3028.82,1129.4 3086.05,1072.27 	"/>
	<polygon class="st0" points="2941.99,1608.11 2945.08,1608.11 2943.87,1606.23 	"/>
	<polygon class="st0" points="2750.87,875.84 2497.28,1129.4 2516.37,1129.4 2756.56,889.21 	"/>
	<polygon class="st0" points="2685.14,1608.11 2723.1,1570.12 2723.1,1550.96 2666.02,1608.11 	"/>
	<path class="st0" d="M2924.67,1428.23l-56.93,56.93C2893.85,1472.88,2913.89,1454.01,2924.67,1428.23"/>
	<polygon class="st0" points="2555.8,1129.42 2583.53,1101.71 2596.25,1069.88 2536.67,1129.42 	"/>
	<polygon class="st0" points="2762.52,903.5 2598.31,1067.73 2617.43,1067.73 2768.26,916.94 	"/>
	<path class="st0" d="M2933.79,1381.6v-0.94c0-0.35-0.03-0.61-0.03-0.9l-150.75,150.71l7.65,11.51l141.85-141.89
		C2933.35,1394.21,2933.79,1388.04,2933.79,1381.6"/>
	<polygon class="st0" points="2627.37,1608.11 2645.72,1608.11 2723.1,1530.66 2723.1,1511.61 2627.37,1607.26 	"/>
	<path class="st0" d="M2929.27,1344.86l-162,161.93l7.61,11.55l157.51-157.55C2931.66,1355.32,2930.63,1349.97,2929.27,1344.86"/>
	<path class="st0" d="M2917.17,1317.46l-185.94,186.02h19.05L2923.83,1330C2921.88,1325.66,2919.71,1321.38,2917.17,1317.46"/>
	<path class="st0" d="M2455.29,1345.71l-249.53,249.46c4.3,2.17,8.64,4.19,13.17,6.03l242.88-242.91
		C2459.77,1354.07,2457.64,1349.81,2455.29,1345.71"/>
	<path class="st0" d="M2439.18,1322.35l-258.1,258.06c3.71,2.72,7.61,5.19,11.58,7.58l254.76-254.75
		C2444.84,1329.47,2442.08,1325.9,2439.18,1322.35"/>
	<path class="st0" d="M2419.76,1302.34l-260.27,260.31c3.2,3.2,6.62,6.11,10.11,9.01l259.98-259.98
		C2426.41,1308.45,2423.18,1305.36,2419.76,1302.34"/>
	<path class="st0" d="M2326.38,1612.01l150.38-150.35c1.03-6.95,1.62-13.9,1.84-21l-173.77,173.73
		C2312.15,1614,2319.36,1613.22,2326.38,1612.01"/>
	<path class="st0" d="M2371.55,1271.71l-245.34,245.37c2.13,4.19,4.41,8.27,6.92,12.21l251.41-251.48
		C2380.33,1275.63,2375.96,1273.64,2371.55,1271.71"/>
	<path class="st0" d="M2397.4,1285.32l-256.15,256.15c2.72,3.6,5.48,7.25,8.42,10.63l258.95-258.91
		C2404.94,1290.52,2401.26,1287.76,2397.4,1285.32"/>
	<path class="st0" d="M2467.79,1372.66L2234,1606.42c4.97,1.51,10.15,2.72,15.23,3.9l223.2-223.2
		C2471.06,1382.19,2469.52,1377.33,2467.79,1372.66"/>
	<path class="st0" d="M2386.81,1591.01l70.58-70.54c5.59-10.44,10.22-21.4,13.72-32.91l-117.94,117.94
		C2365,1601.71,2376.25,1596.86,2386.81,1591.01"/>
	<path class="st0" d="M2476.14,1403.7l-209.52,209.48c5.81,0.74,11.73,1.21,17.73,1.44l193.85-193.89
		C2477.76,1414.99,2477.06,1409.33,2476.14,1403.7"/>
	<polygon class="st0" points="2723.1,1608.11 2723.1,1590.42 2705.44,1608.11 	"/>
	<polygon class="st0" points="3907.13,1470.01 3830.75,1546.44 3837.74,1546.44 3841.19,1555 3912.83,1483.47 	"/>
	<polygon class="st0" points="3351.73,1453.09 3446.98,1357.9 3446.98,1338.79 3351.73,1434.04 	"/>
	<polygon class="st0" points="3918.83,1497.74 3847.08,1569.46 3852.67,1583.03 3924.53,1511.13 	"/>
	<polygon class="st0" points="3245.22,1520.17 3344.37,1421.06 3351.73,1409.81 3351.73,1413.71 3446.98,1318.47 3446.98,1299.33 
		3237.68,1508.59 	"/>
	<polygon class="st0" points="3930.6,1525.43 3858.55,1597.41 3862.93,1608.11 3866.98,1608.11 3936.26,1538.86 	"/>
	<polygon class="st0" points="3942.29,1553.13 3887.31,1608.11 3906.4,1608.11 3947.96,1566.59 	"/>
	<polygon class="st0" points="3848.59,1331.47 3584.53,1595.42 3579.23,1608.11 3591,1608.11 3854.29,1344.88 	"/>
	<polygon class="st0" points="3669.85,1608.11 3686.55,1591.45 3699.27,1559.6 3650.8,1608.11 	"/>
	<polygon class="st0" points="3872.01,1386.86 3712.44,1546.44 3731.6,1546.44 3877.68,1400.28 	"/>
	<polygon class="st0" points="3883.74,1414.59 3751.86,1546.44 3770.95,1546.44 3889.37,1428.01 	"/>
	<polygon class="st0" points="3895.4,1442.28 3791.29,1546.44 3810.37,1546.44 3901.07,1455.74 	"/>
	<polygon class="st0" points="3351.73,1492.56 3446.98,1397.34 3446.98,1378.18 3351.73,1473.43 	"/>
	<polygon class="st0" points="3860.28,1359.17 3611.3,1608.11 3630.39,1608.11 3865.94,1372.57 	"/>
	<polygon class="st0" points="3222.09,1484.8 3229.7,1496.38 3446.98,1279.03 3446.98,1262.75 3444.15,1262.75 	"/>
	<polygon class="st0" points="3351.73,1571.37 3446.98,1476.19 3446.98,1457.07 3351.73,1552.28 	"/>
	<polygon class="st0" points="3393.87,1608.11 3446.98,1555 3446.98,1535.88 3374.79,1608.11 	"/>
	<polygon class="st0" points="3351.73,1608.11 3354.45,1608.11 3446.98,1515.58 3446.98,1496.45 3351.73,1591.71 	"/>
	<polygon class="st0" points="3260.81,1544.01 3270.12,1534.74 3306.09,1479.68 3253.31,1532.46 	"/>
	<polygon class="st0" points="3433.3,1608.11 3446.98,1594.43 3446.98,1575.3 3414.21,1608.11 	"/>
	<polygon class="st0" points="3236.28,1352.36 3175.27,1413.3 3182.85,1424.85 3243.53,1364.15 	"/>
	<polygon class="st0" points="3351.73,1531.98 3446.98,1436.76 3446.98,1417.64 3351.73,1512.86 	"/>
	<polygon class="st0" points="3953.99,1580.86 3926.77,1608.11 3945.86,1608.11 3959.69,1594.28 	"/>
	<polygon class="st0" points="3251.29,1376.75 3190.9,1437.13 3198.44,1448.68 3258.61,1388.57 	"/>
	<polygon class="st0" points="3404.76,1262.74 3206.5,1461 3214.07,1472.55 3423.81,1262.74 	"/>
	<path class="st0" d="M2171.95,1857.07h65.17c16.56,0,29.6,4.6,37.9,12.86c6.45,6.45,9.77,14.3,9.77,24.06v0.42
		c0,17.44-9.98,26.74-20.75,32.32c17.01,5.79,28.83,15.51,28.83,35.28v0.38c0,25.94-21.34,39.78-53.69,39.78h-67.23V1857.07z
		 M2231.89,1918.26c16.35,0,27.37-6.41,27.37-19.73v-0.42c0-11.4-9.1-18.42-25.49-18.42h-36.71v38.57H2231.89z M2239.38,1979.63
		c17.44,0,27.96-6.87,27.96-19.87v-0.45c0-12.24-9.73-19.52-29.85-19.52h-40.44v39.85H2239.38z"/>
	<path class="st0" d="M2481.22,1930.08v-0.42c0-40.87,31.52-75.11,76.08-75.11c44.63,0,75.73,33.82,75.73,74.72v0.39
		c0,40.86-31.52,75.07-76.15,75.07C2512.32,2004.74,2481.22,1970.92,2481.22,1930.08 M2606.26,1930.08v-0.42
		c0-28.25-20.5-51.67-49.37-51.67c-28.8,0-48.92,23.01-48.92,51.29v0.39c0,28.2,20.54,51.61,49.34,51.61
		C2586.14,1981.27,2606.26,1958.22,2606.26,1930.08"/>
	<path class="st0" d="M2823.45,1930.08v-0.42c0-40.69,31.14-75.11,74.87-75.11c25.31,0,40.86,7.11,55.79,19.7l-16.14,19.32
		c-11.23-9.6-22.21-15.59-40.66-15.59c-26.78,0-47.07,23.43-47.07,51.29v0.39c0,29.81,19.66,51.85,49.34,51.85
		c13.66,0,26.15-4.4,35.04-10.99v-27.2h-37.13v-22.18h61.79v60.95c-14.3,12.24-34.8,22.63-60.53,22.63
		C2853.34,2004.74,2823.45,1972.34,2823.45,1930.08"/>
	<path class="st0" d="M3152.02,1930.08v-0.42c0-40.87,31.49-75.11,76.08-75.11c44.63,0,75.74,33.82,75.74,74.72v0.39
		c0,40.86-31.56,75.07-76.15,75.07C3183.12,2004.74,3152.02,1970.92,3152.02,1930.08 M3277.05,1930.08v-0.42
		c0-28.25-20.5-51.67-49.37-51.67c-28.77,0-48.96,23.01-48.96,51.29v0.39c0,28.2,20.54,51.61,49.38,51.61
		C3256.97,1981.27,3277.05,1958.22,3277.05,1930.08"/>
	<polygon class="st0" points="3528.45,1880.68 3482.39,1880.68 3482.39,1857.07 3600.2,1857.07 3600.2,1880.68 3554.11,1880.68 
		3554.11,2002.19 3528.45,2002.19 	"/>
	<path class="st0" d="M3825.88,1856.06h23.64l63.87,146.13h-26.91l-14.78-34.97h-68.62l-14.93,34.97h-26.11L3825.88,1856.06z
		 M3862.38,1944.59l-25.07-58.09l-24.93,58.09H3862.38z M3850.56,1812.86l22.8,9.97l-26.5,20.09h-19.52L3850.56,1812.86z"/>
	<rect x="2114.69" y="1695.53" class="st0" width="1848.32" height="24.2"/>
	<g>
		<polygon class="st0" points="1968.13,273.9 1968.13,263.53 1957.8,263.53 		"/>
		<polygon class="st0" points="1867.71,263.53 1968.13,364 1968.13,325.25 1906.43,263.53 		"/>
		<polygon class="st0" points="1777.64,263.53 1968.15,454.04 1968.15,415.31 1816.37,263.53 		"/>
		<polygon class="st0" points="1687.55,263.53 1968.13,544.16 1968.13,505.43 1726.31,263.53 		"/>
		<polygon class="st0" points="1597.52,263.53 1968.13,634.18 1968.13,595.49 1636.25,263.53 		"/>
		<polygon class="st0" points="1257.09,1329.58 1295.82,1329.58 1954.11,671.42 1546.13,263.55 1507.37,263.55 1915.24,671.42 		"/>
		<polygon class="st0" points="1597.73,898.91 1597.73,937.6 1864.19,671.41 1854.21,661.72 1456.05,263.53 1417.36,263.53 
			1825.2,671.41 		"/>
		<polygon class="st0" points="1597.73,808.85 1597.73,847.58 1774.25,671.41 1365.95,263.53 1327.26,263.53 1735.13,671.41 		"/>
		<polygon class="st0" points="1597.73,718.75 1597.73,757.44 1683.4,671.42 1275.91,263.55 1237.18,263.55 1645.02,671.42 		"/>
		<polygon class="st0" points="1556.27,633.97 1185.83,263.53 1147.1,263.53 1517.54,633.97 		"/>
		<polygon class="st0" points="1466.17,633.97 1095.77,263.53 1057.07,263.53 1427.48,633.97 		"/>
		<polygon class="st0" points="1376.07,633.97 1005.67,263.53 966.94,263.53 1337.38,633.97 		"/>
		<polygon class="st0" points="1286.05,633.97 915.64,263.53 876.88,263.53 1247.28,633.97 		"/>
		<polygon class="st0" points="1195.95,633.97 825.51,263.53 786.81,263.53 1157.22,633.97 		"/>
		<polygon class="st0" points="1105.89,633.97 735.48,263.53 696.75,263.53 1067.16,633.97 		"/>
		<polygon class="st0" points="1015.82,633.97 645.35,263.53 606.62,263.53 977.09,633.97 		"/>
		<polygon class="st0" points="925.69,633.97 555.32,263.53 516.63,263.53 887.03,633.97 		"/>
		<polygon class="st0" points="835.63,633.97 465.22,263.53 426.49,263.53 796.9,633.97 		"/>
		<polygon class="st0" points="745.56,633.97 375.16,263.53 336.43,263.53 706.84,633.97 		"/>
		<polygon class="st0" points="655.5,633.97 285.03,263.53 246.3,263.53 616.77,633.97 		"/>
		<polygon class="st0" points="1889.63,1635.17 1888.98,1635.9 1968.12,1715.01 1968.12,1676.28 1909.03,1617.17 1968.12,1557.96 
			1968.12,1519.26 1870.95,1616.51 		"/>
		<polygon class="st0" points="1799.57,1635.17 1798.92,1635.9 1968.13,1805.07 1968.13,1766.41 1818.96,1617.17 1968.13,1467.93 
			1968.13,1429.2 1780.88,1616.51 		"/>
		<polygon class="st0" points="1709.5,1635.17 1708.85,1635.9 1968.13,1895.13 1968.13,1856.44 1728.83,1617.17 1968.13,1377.83 
			1968.13,1339.1 1690.82,1616.51 		"/>
		<polygon class="st0" points="1619.44,1635.17 1618.76,1635.9 1968.15,1985.27 1968.15,1946.54 1638.77,1617.17 1968.15,1287.79 
			1968.15,1249.06 1600.76,1616.51 		"/>
		<polygon class="st0" points="1556.48,1663.6 1926.89,2034.01 1965.52,2034.01 1595.17,1663.6 		"/>
		<polygon class="st0" points="1466.35,1663.6 1836.75,2034.01 1875.48,2034.01 1505.08,1663.6 		"/>
		<polygon class="st0" points="1376.28,1663.6 1746.72,2034.01 1785.42,2034.01 1415.01,1663.6 		"/>
		<polygon class="st0" points="1286.22,1663.6 1656.56,2034.01 1695.36,2034.01 1324.92,1663.6 		"/>
		<polygon class="st0" points="1196.16,1663.6 1566.53,2034.01 1605.29,2034.01 1234.89,1663.6 		"/>
		<polygon class="st0" points="1106.03,1663.6 1476.43,2034.01 1515.16,2034.01 1144.79,1663.6 		"/>
		<polygon class="st0" points="1015.96,1663.6 1386.37,2034.01 1425.1,2034.01 1054.69,1663.6 		"/>
		<polygon class="st0" points="925.9,1663.6 1296.31,2034.01 1335,2034.01 964.63,1663.6 		"/>
		<polygon class="st0" points="835.84,1663.6 1206.24,2034.01 1244.97,2034.01 874.57,1663.6 		"/>
		<polygon class="st0" points="745.77,1663.6 1116.15,2034.01 1154.84,2034.01 784.5,1663.6 		"/>
		<polygon class="st0" points="655.68,1663.6 1026.08,2034.01 1064.81,2034.01 694.37,1663.6 		"/>
		<polygon class="st0" points="568.1,1663.6 568.1,1627.4 557.88,1617.17 568.1,1606.91 568.1,1568.15 519.76,1616.51 
			538.55,1635.17 537.85,1635.87 935.99,2034.01 974.71,2034.01 604.31,1663.6 		"/>
		<polygon class="st0" points="568.1,1516.81 568.1,1478.12 429.77,1616.51 448.41,1635.17 447.8,1635.87 845.96,2034.01 
			884.65,2034.01 467.78,1617.17 		"/>
		<polygon class="st0" points="568.1,1426.75 568.1,1388.02 339.65,1616.51 358.37,1635.2 357.72,1635.87 755.84,2034.01 
			794.54,2034.01 377.66,1617.17 		"/>
		<polygon class="st0" points="568.1,1336.65 568.1,1329.6 575.16,1329.6 945.63,959.16 906.92,959.16 249.59,1616.51 
			268.31,1635.17 267.62,1635.87 665.82,2034.01 704.54,2034.01 287.63,1617.17 		"/>
		<polygon class="st0" points="197.7,1655.97 575.7,2034.01 614.39,2034.01 197.7,1617.31 		"/>
		<polygon class="st0" points="197.7,1746.1 485.65,2034.01 524.35,2034.01 197.7,1707.37 		"/>
		<polygon class="st0" points="197.7,1836.16 395.56,2034.01 434.29,2034.01 197.7,1797.43 		"/>
		<polygon class="st0" points="197.7,1926.23 305.48,2034.01 344.21,2034.01 197.7,1887.53 		"/>
		<polygon class="st0" points="197.7,2016.32 215.41,2034.01 254.09,2034.01 197.7,1977.63 		"/>
		<polygon class="st0" points="232.85,661.71 197.71,626.57 197.71,665.3 203.84,671.42 197.71,677.52 197.71,716.25 242.46,671.42 
					"/>
		<polygon class="st0" points="332.65,671.41 322.93,661.69 197.68,536.47 197.68,575.2 293.89,671.41 197.68,767.61 197.68,806.34 
			322.93,681.12 		"/>
		<polygon class="st0" points="197.7,446.43 197.7,485.12 383.97,671.39 197.7,857.71 197.7,896.39 423.06,671.39 		"/>
		<polygon class="st0" points="197.7,356.33 197.7,395.02 474.05,671.41 197.7,947.79 197.7,986.43 512.81,671.41 		"/>
		<polygon class="st0" points="568.1,636.71 197.7,266.27 197.7,304.96 564.16,671.42 197.7,1037.84 197.7,1076.57 568.1,706.13 		
			"/>
		<polygon class="st0" points="568.1,757.51 197.7,1127.92 197.7,1166.65 568.1,796.24 		"/>
		<polygon class="st0" points="568.1,847.58 197.7,1217.98 197.7,1256.71 568.1,886.3 		"/>
		<polygon class="st0" points="568.1,959.14 568.1,937.62 197.7,1308.03 197.7,1346.79 585.31,959.14 		"/>
		<polygon class="st0" points="636.66,959.14 197.7,1398.11 197.7,1436.83 675.39,959.14 		"/>
		<polygon class="st0" points="726.8,959.14 197.7,1488.24 197.7,1526.93 765.49,959.14 		"/>
		<polygon class="st0" points="816.86,959.14 197.68,1578.3 197.68,1617.03 855.59,959.14 		"/>
		<polygon class="st0" points="626.58,1329.58 665.27,1329.58 1035.71,959.14 997.02,959.14 		"/>
		<polygon class="st0" points="1125.77,959.14 1087.08,959.14 716.68,1329.58 755.37,1329.58 		"/>
		<polygon class="st0" points="1215.87,959.14 1177.18,959.14 806.7,1329.58 845.43,1329.58 		"/>
		<polygon class="st0" points="1305.97,959.14 1267.24,959.14 896.8,1329.58 935.53,1329.58 		"/>
		<polygon class="st0" points="1396.03,959.14 1357.31,959.14 986.86,1329.58 1025.56,1329.58 		"/>
		<polygon class="st0" points="1486.1,959.14 1447.37,959.14 1076.96,1329.58 1115.66,1329.58 		"/>
		<polygon class="st0" points="1576.19,959.14 1537.43,959.14 1167.03,1329.58 1205.75,1329.58 		"/>
		<polygon class="st0" points="1385.88,1329.58 1968.12,747.31 1968.12,708.58 1347.19,1329.58 		"/>
		<polygon class="st0" points="1475.94,1329.58 1968.15,837.37 1968.15,798.64 1437.25,1329.58 		"/>
		<polygon class="st0" points="1566,1329.58 1968.13,927.41 1968.13,888.76 1527.35,1329.58 		"/>
		<polygon class="st0" points="1597.73,1478.08 1968.13,1107.61 1968.13,1068.88 1597.73,1439.35 		"/>
		<polygon class="st0" points="1597.73,1568.15 1968.13,1197.67 1968.13,1158.98 1597.73,1529.45 		"/>
		<polygon class="st0" points="1968.13,1623.65 1968.13,1609.36 1960.99,1616.51 		"/>
		<polygon class="st0" points="1597.73,1387.99 1968.13,1017.55 1968.13,978.82 1597.73,1349.29 		"/>
	</g>
</g>
</svg>
